<svg width="331" height="50" viewBox="0 0 331 50" fill="none" xmlns="http://www.w3.org/2000/svg">
<path d="M8.21898 36.7473C8.90817 36.7661 9.46251 36.8225 10.1405 36.9805C11.4402 37.3264 12.4627 37.8341 13.3542 38.8607C13.3654 38.872 13.3766 38.8833 13.3916 38.8945C13.3991 38.9096 13.4103 38.9246 13.4216 38.9359L13.4253 38.9434C13.8411 39.4248 14.092 39.8685 14.3205 40.4664C14.5452 41.1094 14.6202 41.6284 14.6164 42.309C14.5977 42.9784 14.504 43.486 14.328 44.1253C14.1145 44.8097 13.0058 46.9682 13.4141 47.363C14.2531 47.9497 15.7251 45.1594 15.9386 44.7119C16.2645 43.9298 16.4218 43.2491 16.4967 42.403C16.5491 41.4592 16.4667 40.7296 16.1896 39.8271C15.8937 38.9735 15.5528 38.3192 14.9797 37.6235L14.9722 37.616C14.9573 37.5972 14.9385 37.5821 14.9235 37.5671C14.9123 37.5483 14.8973 37.5295 14.8823 37.5107C13.6875 36.172 12.253 35.5101 10.5225 35.1303C9.69474 34.9874 8.97933 34.9498 8.14032 35.0288C7.6534 35.1003 4.63822 35.6117 4.92663 36.5819C5.17383 37.1196 7.53354 36.7473 8.21898 36.7473Z" fill="white"/>
<path d="M8.63241 33.6567C9.44894 33.747 10.1194 33.8711 10.9135 34.1042C12.8686 34.7435 14.3369 35.6197 15.6891 37.1765C15.6928 37.1803 15.7378 37.2329 15.7452 37.2442C15.7602 37.263 15.779 37.2818 15.7977 37.2931C15.8089 37.3156 15.8239 37.3382 15.8389 37.357C17.0974 38.8386 17.6892 40.2864 17.9551 42.2192C18.045 43.1443 18.0188 43.8701 17.9064 44.7839C17.7416 45.8293 16.6704 48.8752 17.3558 49.3866C18.7042 50.1199 20.1987 46.0135 20.4235 45.3103C20.7231 44.1709 20.8093 43.1819 20.7681 42.0049C20.5471 39.4478 19.8129 37.3721 18.1836 35.3865C18.1611 35.3602 18.1387 35.3377 18.1124 35.3151C18.0975 35.285 18.075 35.2587 18.0563 35.2361C18.045 35.2211 17.9776 35.1496 17.9776 35.1459C16.176 33.1717 14.1946 32.0774 11.6214 31.3892C10.6176 31.1636 9.73735 31.0545 8.71107 31.0771C7.98443 31.1297 3.75193 31.5847 4.17518 33.0852C4.51603 33.8824 7.59489 33.574 8.62866 33.6605L8.63241 33.6567Z" fill="white"/>
<path d="M12.5121 26.7044C14.1752 27.0466 15.5311 27.4264 17.1042 28.0995C19.1006 29.0208 20.625 29.991 22.0783 31.6456C22.1008 31.6681 22.1233 31.6945 22.1457 31.7133C22.1645 31.7396 22.1832 31.7659 22.2057 31.7922C22.524 32.1608 22.7975 32.518 23.0746 32.9204C24.4979 35.1014 25.056 37.0681 25.2171 39.6628C25.2508 40.4976 25.2283 41.2497 25.1572 42.0808C25.0673 42.8705 24.011 47.4695 24.453 47.7327C25.5729 48.0711 26.7565 42.8291 26.8577 42.2951C27 41.3776 27.0562 40.539 27.0524 39.6102C26.9588 36.6206 26.3445 34.3305 24.7489 31.796C24.438 31.3297 24.1122 30.8822 23.7488 30.4573C23.7226 30.4272 23.6964 30.4009 23.6702 30.3746C23.6477 30.3445 23.6252 30.3144 23.599 30.2881C21.9322 28.4267 20.1231 27.3173 17.8458 26.3246C16.1341 25.6515 14.6021 25.2566 12.7855 25.0084C12.2162 24.9483 6.62034 24.4444 6.51172 25.501C6.6091 26.0726 11.8005 26.5765 12.5084 26.7044H12.5121Z" fill="white"/>
<path d="M8.47476 40.396C8.79688 40.3359 9.04783 40.2982 9.37744 40.3095C9.65836 40.3208 9.87934 40.3584 10.1415 40.4675C10.3475 40.5577 10.4749 40.6367 10.6434 40.7833C10.6472 40.7871 10.6547 40.7909 10.6622 40.7909C10.6659 40.7984 10.6697 40.8021 10.6734 40.8097C10.6772 40.8134 10.6921 40.8285 10.6959 40.8285C10.8757 40.9826 10.988 41.1331 11.1004 41.3436C11.224 41.5918 11.2802 41.7987 11.3139 42.0732C11.3588 42.1935 11.3251 42.7312 11.3102 42.8854C11.2465 43.4683 10.9431 44.3144 11.4263 44.6679C12.1117 45.1266 12.8046 43.7654 12.9732 43.3066C13.1305 42.8591 13.1904 42.4605 13.1942 41.9904C13.1829 41.4452 13.1005 41.0315 12.8983 40.5276C12.6848 40.0463 12.4526 39.6928 12.0742 39.3281C12.0705 39.3205 12.0368 39.2905 12.0256 39.2829C12.0143 39.2717 12.0031 39.2641 11.9881 39.2566C11.9806 39.2453 11.9694 39.234 11.9581 39.2228C11.6061 38.9295 11.2427 38.7452 10.812 38.591C10.2876 38.4256 9.86062 38.3767 9.31002 38.4068C8.79688 38.4556 8.37363 38.5572 7.90543 38.7715C7.46345 38.9821 6.17123 39.7755 6.66565 40.4299C7.05144 40.8999 7.90543 40.5126 8.47476 40.396Z" fill="white"/>
<path d="M9.33194 29.9847C10.4444 30.0862 11.3845 30.2328 12.4707 30.5186C14.8529 31.2143 16.722 32.1469 18.4786 33.9181C18.5011 33.9406 18.5236 33.9594 18.546 33.9745C18.5498 33.982 18.5798 34.0234 18.5872 34.0271C18.5872 34.0271 18.6022 34.0459 18.606 34.0497C20.3289 35.7945 21.1754 37.577 21.6511 39.9874C21.8234 41.0817 21.8534 41.9691 21.7935 43.071C21.7036 44.1652 20.711 48.2265 21.4301 48.6552C22.9059 49.223 24.1906 44.1088 24.3479 43.3755C24.5614 42.0556 24.5764 40.9313 24.4378 39.5963C23.9696 36.5428 22.9321 34.1399 20.7934 31.9062C20.7896 31.9025 20.7672 31.8799 20.7672 31.8799C20.7634 31.8761 20.711 31.8348 20.7035 31.8273C20.681 31.7972 20.6548 31.7671 20.6286 31.7408C18.4674 29.6237 16.0365 28.4955 13.1225 27.7773C11.8452 27.514 10.7066 27.3862 9.40311 27.4088C8.66149 27.4539 3.58624 27.8487 3.8709 29.3755C4.17055 30.2178 8.30566 29.9207 9.3282 29.9922L9.33194 29.9847Z" fill="white"/>
<path d="M13.4962 24.0718C15.4476 24.3688 16.9496 24.7411 18.7474 25.5722C18.7624 25.5797 18.7774 25.5835 18.7924 25.5872C18.8036 25.5985 18.8186 25.606 18.8336 25.6135C18.9048 25.6474 19.2119 25.8016 19.2419 25.8053C20.9349 26.6552 22.051 27.5276 23.4369 28.7986C23.8676 29.1935 25.3022 30.8255 25.8977 30.4419C26.5832 29.8816 24.9913 28.0089 24.6804 27.6103C23.3732 26.0798 21.9237 24.9479 20.1595 23.989C20.1221 23.9552 19.7812 23.7935 19.6988 23.7559C19.6838 23.7484 19.6651 23.7408 19.6464 23.7371C19.6314 23.7258 19.6164 23.7183 19.6014 23.7108C17.8485 22.8985 15.5637 22.3908 13.6385 22.3532C13.1965 22.3457 10.3386 22.3269 10.3873 23.1843C10.4772 23.8725 12.9156 23.9853 13.4962 24.068V24.0718Z" fill="white"/>
<path d="M27.7257 38.9758C27.7707 39.6113 27.8419 40.1152 27.8381 40.7658C27.8381 40.7733 27.8419 40.777 27.8456 40.7808C27.8419 40.7846 27.8419 40.7921 27.8419 40.7958C27.8831 41.4426 27.8493 41.9653 27.8493 42.6008C27.8643 43.1311 27.898 43.5485 28.4561 43.7177C29.0779 43.8907 29.2989 43.462 29.5311 42.9355C29.7521 42.3752 29.8944 41.3449 29.8794 40.7357C29.8794 40.7282 29.8757 40.7206 29.872 40.7131C29.8757 40.7056 29.8757 40.6981 29.8757 40.6905C29.8532 40.0738 29.6435 39.0548 29.3775 38.5095C29.1079 37.9981 28.8457 37.5769 28.2351 37.8063C27.6958 38.0206 27.6995 38.4456 27.7257 38.972V38.9758Z" fill="white"/>
<path d="M23.4765 25.2737C23.8885 25.6009 24.2369 25.8415 24.6301 26.2101C24.6339 26.2138 24.6376 26.2138 24.6414 26.2138C24.6414 26.2176 24.6451 26.2213 24.6489 26.2251C25.0684 26.5635 25.368 26.8757 25.7538 27.2329C26.0834 27.5187 26.3606 27.733 26.7726 27.4848C27.2258 27.1991 27.091 26.823 26.9 26.3868C26.6827 25.9355 26.1359 25.27 25.7538 24.939C25.7501 24.9353 25.7426 24.9315 25.7388 24.9315C25.7351 24.9278 25.7351 24.9202 25.7276 24.9165C25.3418 24.5856 24.6002 24.1418 24.117 23.9989C23.6526 23.8786 23.2518 23.8034 23.0495 24.3035C22.881 24.7548 23.1357 24.9917 23.4728 25.27L23.4765 25.2737Z" fill="white"/>
<path d="M9.20921 43.5498C9.75947 43.5498 10.2055 43.0481 10.2055 42.4292C10.2055 41.8103 9.75947 41.3086 9.20921 41.3086C8.65896 41.3086 8.21289 41.8103 8.21289 42.4292C8.21289 43.0481 8.65896 43.5498 9.20921 43.5498Z" fill="white"/>
<path fill-rule="evenodd" clip-rule="evenodd" d="M14.064 17.2365C14.064 18.0337 13.2175 19.1543 12.2549 19.1543C11.2922 19.1543 10.5469 17.8194 10.5469 17.0222C10.5469 15.6083 14.0602 15.9354 14.0602 17.2403L14.064 17.2365Z" fill="white"/>
<path fill-rule="evenodd" clip-rule="evenodd" d="M6.932 19.4841C6.932 20.5333 7.24662 21.4132 5.93567 21.8193C4.62473 22.2255 2.77441 20.5784 2.77441 19.7812C2.77441 18.3673 6.93574 18.435 6.93574 19.4841H6.932Z" fill="white"/>
<path fill-rule="evenodd" clip-rule="evenodd" d="M33.9216 40.2298C33.4384 40.4291 32.7979 41.0458 32.1162 39.9026C31.4345 38.7595 32.12 36.7815 32.487 36.631C33.1388 36.3641 34.4048 40.0305 33.9216 40.2298Z" fill="white"/>
<path fill-rule="evenodd" clip-rule="evenodd" d="M21.0956 19.0091C20.8371 19.8514 19.6648 20.7878 18.7433 20.502C17.8257 20.2162 17.5485 18.5804 17.8069 17.738C18.2677 16.2376 21.5188 17.629 21.0956 19.0091Z" fill="white"/>
<path fill-rule="evenodd" clip-rule="evenodd" d="M28.5565 23.4489C28.1145 23.8249 26.8972 23.9152 26.2268 23.4226C25.5563 22.9299 25.7811 21.9184 26.223 21.5423C27.0096 20.8768 29.2794 22.8359 28.5565 23.4489Z" fill="white"/>
<path fill-rule="evenodd" clip-rule="evenodd" d="M15.3271 2.08334C15.4245 1.55688 14.4844 0.620528 13.2671 0.394902C12.046 0.169276 10.9411 0.872478 10.8437 1.39894C10.6714 2.33153 15.1698 2.94072 15.3309 2.08334H15.3271Z" fill="white"/>
<path fill-rule="evenodd" clip-rule="evenodd" d="M2.97321 8.77439C2.9807 8.45851 2.33646 7.99974 1.60233 7.9847C0.864456 7.96965 0.283893 8.49235 0.276402 8.80823C0.265165 9.37229 2.96572 9.29332 2.97321 8.77439Z" fill="white"/>
<path fill-rule="evenodd" clip-rule="evenodd" d="M26.7417 3.8819C27.1724 3.02076 26.8203 1.00141 25.4644 0.256841C24.1086 -0.487724 21.9998 1.95656 21.6739 2.60711C21.0934 3.76908 26.3109 4.73928 26.7417 3.87814V3.8819Z" fill="white"/>
<path fill-rule="evenodd" clip-rule="evenodd" d="M36.1914 9.46404C36.7532 8.77962 36.7382 6.93325 35.5247 6.02698C34.3148 5.12072 31.8428 6.89564 31.4158 7.41458C30.6554 8.33589 35.6295 10.1484 36.1914 9.46404Z" fill="white"/>
<path fill-rule="evenodd" clip-rule="evenodd" d="M42.7165 33.7806C43.3832 33.6753 44.3046 32.6036 44.0649 31.4717C43.8252 30.3361 41.5142 30.1029 41.0085 30.1819C40.1096 30.3248 42.0536 33.8897 42.7203 33.7806H42.7165Z" fill="white"/>
<path fill-rule="evenodd" clip-rule="evenodd" d="M13.7646 15.2079C13.2739 15.6253 10.0864 15.3621 9.73059 14.8243C9.52084 14.5047 9.58451 12.9215 9.98529 12.6132C10.4085 12.286 13.2814 12.3161 13.8882 12.9253C14.1541 13.1923 14.1354 14.892 13.7646 15.2116V15.2079Z" fill="white"/>
<path fill-rule="evenodd" clip-rule="evenodd" d="M4.81734 15.3714C4.44653 15.8978 1.29276 16.4318 0.813328 15.9993C0.528665 15.7436 0.2028 14.1943 0.517428 13.792C0.847038 13.3708 3.63749 12.6864 4.37536 13.1264C4.69748 13.3182 5.10201 14.9727 4.81734 15.3714Z" fill="white"/>
<path fill-rule="evenodd" clip-rule="evenodd" d="M5.67928 17.8402C5.26726 18.235 2.12473 18.7916 1.69024 18.5095C1.43555 18.3441 1.24452 17.2573 1.58911 16.9565C1.94869 16.6368 4.75037 15.9976 5.43581 16.2683C5.73546 16.3887 5.99016 17.5431 5.67928 17.8402Z" fill="white"/>
<path fill-rule="evenodd" clip-rule="evenodd" d="M21.5081 17.373C20.9051 17.6701 17.9423 16.4479 17.7775 15.771C17.6801 15.3724 18.2532 13.7141 18.7439 13.5035C19.2533 13.2816 21.9913 14.1616 22.3696 14.9889C22.5381 15.3499 21.9651 17.1474 21.5081 17.373Z" fill="white"/>
<path fill-rule="evenodd" clip-rule="evenodd" d="M29.5769 22.2042C28.9252 22.3133 26.3257 20.5158 26.3145 19.8878C26.307 19.5155 27.2322 18.2144 27.7491 18.1505C28.2922 18.0865 30.7493 19.5268 30.9365 20.339C31.0189 20.6963 30.0713 22.1215 29.5769 22.2042Z" fill="white"/>
<path fill-rule="evenodd" clip-rule="evenodd" d="M38.107 37.2133C37.5714 36.826 36.1893 33.3664 36.6275 32.9151C36.8859 32.6481 39.1483 30.3768 39.5565 30.704C39.9835 31.0462 41.4668 34.6825 41.021 35.3895C40.8263 35.6978 38.5153 37.5066 38.1107 37.2133H38.107Z" fill="white"/>
<path fill-rule="evenodd" clip-rule="evenodd" d="M34.2698 38.59C33.7604 38.1688 33.4008 35.0213 33.8653 34.5964C34.1387 34.3444 35.7268 34.1903 36.1126 34.54C36.5209 34.9085 37.049 37.7175 36.5621 38.3907C36.3486 38.6877 34.6556 38.9058 34.2698 38.5862V38.59Z" fill="white"/>
<path fill-rule="evenodd" clip-rule="evenodd" d="M14.4911 12.0586C13.9443 12.3256 10.4796 11.9871 10.1088 11.5923C9.88783 11.3591 10.0077 10.2498 10.4572 10.0543C10.9291 9.84744 14.0567 10.0054 14.6971 10.4642C14.9781 10.6635 14.9069 11.8555 14.4911 12.0623V12.0586Z" fill="white"/>
<path fill-rule="evenodd" clip-rule="evenodd" d="M3.90054 11.7926C3.54846 12.1837 0.7243 12.6988 0.316033 12.4093C0.0725713 12.2401 -0.155909 11.1533 0.139991 10.8525C0.450874 10.5403 2.95666 9.93124 3.59341 10.2132C3.87432 10.3373 4.16648 11.4917 3.90054 11.7888V11.7926Z" fill="white"/>
<path fill-rule="evenodd" clip-rule="evenodd" d="M22.8519 14.2312C22.2414 14.3553 19.0427 12.9677 18.8142 12.4413C18.6794 12.1292 19.1551 10.9897 19.6495 10.9145C20.1664 10.8318 23.1029 11.9299 23.5673 12.603C23.7696 12.9 23.3126 14.141 22.8519 14.235V14.2312Z" fill="white"/>
<path fill-rule="evenodd" clip-rule="evenodd" d="M31.5985 18.469C30.9805 18.5292 27.8904 17.0325 27.7031 16.5399C27.5908 16.2503 28.1451 15.2689 28.6433 15.2388C29.1639 15.2087 32.0143 16.4233 32.4301 17.0626C32.6136 17.3446 32.0667 18.4201 31.6023 18.4652L31.5985 18.469Z" fill="white"/>
<path fill-rule="evenodd" clip-rule="evenodd" d="M15.036 9.53044C14.4704 9.83874 10.6612 9.19197 10.2117 8.66175C9.94575 8.34963 9.95324 6.94323 10.4214 6.7176C10.9121 6.4807 14.3356 6.8793 15.0847 7.50353C15.4143 7.77804 15.463 9.29726 15.036 9.53044Z" fill="white"/>
<path fill-rule="evenodd" clip-rule="evenodd" d="M24.2422 11.9135C23.6167 12.1316 20.0359 10.6387 19.7175 9.97314C19.5302 9.57834 19.8561 8.05533 20.3655 7.90867C20.9011 7.7545 24.1598 8.89391 24.7478 9.72494C25.0063 10.0897 24.7104 11.748 24.2384 11.9135H24.2422Z" fill="white"/>
<path fill-rule="evenodd" clip-rule="evenodd" d="M33.2674 15.7525C32.6307 15.8991 29.166 14.2746 28.8964 13.6541C28.7353 13.2856 29.1698 11.9469 29.6904 11.8529C30.2335 11.7551 33.4023 13.0374 33.9304 13.8309C34.1626 14.1768 33.7506 15.6397 33.2674 15.7525Z" fill="white"/>
<path fill-rule="evenodd" clip-rule="evenodd" d="M14.8352 6.20022C14.1985 6.17014 10.6477 5.68128 10.1383 5.3466C9.83865 5.1473 9.73378 3.05274 10.2619 3.09035C10.8162 3.12795 14.3184 3.51904 15.1649 3.97405C15.5357 4.17335 15.3184 6.22278 14.8352 6.20022Z" fill="white"/>
<path fill-rule="evenodd" clip-rule="evenodd" d="M24.9685 8.18181C24.3692 7.9637 20.9757 7.05744 20.5974 6.55354C20.3727 6.25647 20.957 4.00397 21.4477 4.19951C21.9646 4.40258 25.3468 5.18851 26.0098 5.92179C26.3019 6.24519 25.4255 8.34727 24.9685 8.18181Z" fill="white"/>
<path fill-rule="evenodd" clip-rule="evenodd" d="M34.4312 13.1091C33.8507 12.8647 30.5283 11.7854 30.1875 11.3003C29.9852 11.0145 30.7269 9.04411 31.2025 9.25845C31.7007 9.48404 35.0193 10.458 35.6261 11.1687C35.892 11.4808 34.8695 13.2971 34.4275 13.1129L34.4312 13.1091Z" fill="white"/>
<path d="M56.1151 10.5805C55.0807 10.5805 54.1448 10.3539 53.3074 9.90084C52.4798 9.43774 51.8296 8.80728 51.3568 8.0093C50.8839 7.20148 50.6475 6.29513 50.6475 5.29028C50.6475 4.28542 50.8839 3.384 51.3568 2.58603C51.8296 1.7782 52.4848 1.14771 53.3222 0.694538C54.1595 0.231512 55.0954 0 56.1298 0C56.9377 0 57.6765 0.137922 58.3464 0.413768C59.0163 0.679758 59.5877 1.07875 60.0606 1.61073L59.1001 2.5417C58.3218 1.72402 57.3514 1.31518 56.189 1.31518C55.4205 1.31518 54.726 1.48758 54.1054 1.83239C53.4847 2.17719 52.9971 2.65499 52.6424 3.26579C52.2976 3.86673 52.1252 4.54156 52.1252 5.29028C52.1252 6.03899 52.2976 6.71875 52.6424 7.32955C52.9971 7.93049 53.4847 8.40336 54.1054 8.74817C54.726 9.09297 55.4205 9.26537 56.189 9.26537C57.3416 9.26537 58.312 8.85161 59.1001 8.02408L60.0606 8.95505C59.5877 9.48704 59.0114 9.89094 58.3317 10.1667C57.6618 10.4426 56.9229 10.5805 56.1151 10.5805Z" fill="white"/>
<path d="M80.6699 0.118218V10.4623H79.1921V5.85181H73.2517V10.4623H71.7739V0.118218H73.2517V4.56619H79.1921V0.118218H80.6699Z" fill="white"/>
<path d="M99.962 7.87631H94.4648L93.327 10.4623H91.8049L96.4893 0.118218H97.9523L102.651 10.4623H101.1L99.962 7.87631ZM99.4448 6.69412L97.2134 1.62551L94.982 6.69412H99.4448Z" fill="white"/>
<path d="M120.716 10.4623L118.484 7.28521C118.208 7.30492 117.992 7.31477 117.834 7.31477H115.278V10.4623H113.8V0.118218H117.834C119.174 0.118218 120.228 0.438398 120.996 1.07875C121.765 1.71909 122.149 2.60081 122.149 3.72388C122.149 4.52186 121.952 5.20161 121.558 5.76315C121.164 6.32469 120.602 6.73353 119.873 6.98967L122.326 10.4623H120.716ZM117.79 6.0587C118.726 6.0587 119.44 5.85674 119.932 5.45283C120.425 5.04891 120.671 4.4726 120.671 3.72388C120.671 2.97517 120.425 2.40378 119.932 2.00972C119.44 1.6058 118.726 1.40385 117.79 1.40385H115.278V6.0587H117.79Z" fill="white"/>
<path d="M134.142 0.118218H135.619V10.4623H134.142V0.118218Z" fill="white"/>
<path d="M150.376 1.40385H146.829V0.118218H155.385V1.40385H151.839V10.4623H150.376V1.40385Z" fill="white"/>
<path d="M172.671 7.87631H167.174L166.036 10.4623H164.514L169.198 0.118218H170.661L175.36 10.4623H173.809L172.671 7.87631ZM172.154 6.69412L169.922 1.62551L167.691 6.69412H172.154Z" fill="white"/>
<path d="M193.469 5.09817C194.07 5.26565 194.543 5.57105 194.887 6.01436C195.232 6.44783 195.405 6.99952 195.405 7.66942C195.405 8.56591 195.065 9.25552 194.385 9.73824C193.715 10.2209 192.735 10.4623 191.444 10.4623H186.509V0.118218H191.149C192.331 0.118218 193.242 0.354655 193.883 0.827528C194.533 1.3004 194.858 1.95553 194.858 2.79291C194.858 3.33475 194.73 3.8027 194.474 4.19676C194.227 4.59082 193.892 4.89129 193.469 5.09817ZM187.986 1.31518V4.6253H191.016C191.774 4.6253 192.356 4.48738 192.76 4.21153C193.173 3.92584 193.38 3.51207 193.38 2.97024C193.38 2.42841 193.173 2.01957 192.76 1.74372C192.356 1.45803 191.774 1.31518 191.016 1.31518H187.986ZM191.385 9.26537C192.223 9.26537 192.853 9.12745 193.277 8.85161C193.7 8.57576 193.912 8.1423 193.912 7.5512C193.912 6.39858 193.07 5.82226 191.385 5.82226H187.986V9.26537H191.385Z" fill="white"/>
<path d="M207.298 0.118218H208.776V9.17671H214.376V10.4623H207.298V0.118218Z" fill="white"/>
<path d="M233.184 9.17671V10.4623H225.677V0.118218H232.977V1.40385H227.155V4.58097H232.342V5.83704H227.155V9.17671H233.184Z" fill="white"/>
<path d="M260.234 1.40385V5.00951H265.42V6.28036H260.234V10.4623H258.756V0.118218H266.056V1.40385H260.234Z" fill="white"/>
<path d="M282.027 10.5805C280.647 10.5805 279.574 10.1865 278.805 9.39837C278.037 8.61024 277.653 7.47732 277.653 5.99959V0.118218H279.13V5.94048C279.13 8.15707 280.101 9.26537 282.041 9.26537C282.987 9.26537 283.711 8.99446 284.214 8.45262C284.716 7.90093 284.967 7.06355 284.967 5.94048V0.118218H286.401V5.99959C286.401 7.48717 286.017 8.62502 285.248 9.41314C284.48 10.1914 283.406 10.5805 282.027 10.5805Z" fill="white"/>
<path d="M307.932 0.118218V10.4623H306.72L300.513 2.74858V10.4623H299.036V0.118218H300.247L306.454 7.83197V0.118218H307.932Z" fill="white"/>
<path d="M320.633 0.118218H324.992C326.086 0.118218 327.056 0.334952 327.903 0.768418C328.751 1.20189 329.406 1.81268 329.869 2.60081C330.342 3.37908 330.578 4.27557 330.578 5.29028C330.578 6.30499 330.342 7.2064 329.869 7.99452C329.406 8.7728 328.751 9.37867 327.903 9.81214C327.056 10.2456 326.086 10.4623 324.992 10.4623H320.633V0.118218ZM324.904 9.17671C325.741 9.17671 326.475 9.01416 327.105 8.68906C327.746 8.36396 328.238 7.91079 328.583 7.32955C328.928 6.73845 329.1 6.0587 329.1 5.29028C329.1 4.52186 328.928 3.84703 328.583 3.26579C328.238 2.67469 327.746 2.2166 327.105 1.8915C326.475 1.5664 325.741 1.40385 324.904 1.40385H322.111V9.17671H324.904Z" fill="white"/>
<path d="M64.8507 18.7954C67.568 18.7954 69.92 19.2483 71.9068 20.154C73.9228 21.0598 75.4714 22.3454 76.5524 24.0108C77.6335 25.6762 78.174 27.6484 78.174 29.9273C78.174 32.1771 77.6335 34.1493 76.5524 35.8439C75.4714 37.5093 73.9228 38.7949 71.9068 39.7007C69.92 40.5772 67.568 41.0155 64.8507 41.0155H58.6712V49.474H51.5713V18.7954H64.8507ZM64.4563 35.2304C66.5892 35.2304 68.2108 34.7775 69.321 33.8717C70.4313 32.9368 70.9864 31.622 70.9864 29.9273C70.9864 28.2035 70.4313 26.8887 69.321 25.983C68.2108 25.048 66.5892 24.5805 64.4563 24.5805H58.6712V35.2304H64.4563Z" fill="white"/>
<path d="M98.528 49.9999C95.3433 49.9999 92.4653 49.3133 89.8942 47.9401C87.3522 46.5668 85.3508 44.6823 83.8899 42.2864C82.4583 39.8614 81.7424 37.1441 81.7424 34.1347C81.7424 31.1253 82.4583 28.4226 83.8899 26.0268C85.3508 23.6017 87.3522 21.7026 89.8942 20.3293C92.4653 18.9561 95.3433 18.2695 98.528 18.2695C101.713 18.2695 104.576 18.9561 107.118 20.3293C109.66 21.7026 111.661 23.6017 113.122 26.0268C114.583 28.4226 115.314 31.1253 115.314 34.1347C115.314 37.1441 114.583 39.8614 113.122 42.2864C111.661 44.6823 109.66 46.5668 107.118 47.9401C104.576 49.3133 101.713 49.9999 98.528 49.9999ZM98.528 43.9518C100.339 43.9518 101.976 43.5428 103.437 42.7247C104.897 41.8774 106.037 40.7087 106.855 39.2186C107.702 37.7285 108.126 36.0338 108.126 34.1347C108.126 32.2355 107.702 30.5409 106.855 29.0508C106.037 27.5607 104.897 26.4066 103.437 25.5885C101.976 24.7412 100.339 24.3176 98.528 24.3176C96.7165 24.3176 95.0803 24.7412 93.6194 25.5885C92.1585 26.4066 91.0044 27.5607 90.1571 29.0508C89.339 30.5409 88.93 32.2355 88.93 34.1347C88.93 36.0338 89.339 37.7285 90.1571 39.2186C91.0044 40.7087 92.1585 41.8774 93.6194 42.7247C95.0803 43.5428 96.7165 43.9518 98.528 43.9518Z" fill="white"/>
<path d="M148.567 49.474L148.523 31.0668L139.495 46.2308H136.295L127.311 31.4613V49.474H120.649V18.7954H126.522L138.005 37.86L149.312 18.7954H155.141L155.229 49.474H148.567Z" fill="white"/>
<path d="M177.364 49.9999C174.18 49.9999 171.302 49.3133 168.731 47.9401C166.189 46.5668 164.187 44.6823 162.726 42.2864C161.295 39.8614 160.579 37.1441 160.579 34.1347C160.579 31.1253 161.295 28.4226 162.726 26.0268C164.187 23.6017 166.189 21.7026 168.731 20.3293C171.302 18.9561 174.18 18.2695 177.364 18.2695C180.549 18.2695 183.412 18.9561 185.954 20.3293C188.496 21.7026 190.498 23.6017 191.959 26.0268C193.419 28.4226 194.15 31.1253 194.15 34.1347C194.15 37.1441 193.419 39.8614 191.959 42.2864C190.498 44.6823 188.496 46.5668 185.954 47.9401C183.412 49.3133 180.549 49.9999 177.364 49.9999ZM177.364 43.9518C179.176 43.9518 180.812 43.5428 182.273 42.7247C183.734 41.8774 184.873 40.7087 185.691 39.2186C186.539 37.7285 186.962 36.0338 186.962 34.1347C186.962 32.2355 186.539 30.5409 185.691 29.0508C184.873 27.5607 183.734 26.4066 182.273 25.5885C180.812 24.7412 179.176 24.3176 177.364 24.3176C175.553 24.3176 173.917 24.7412 172.456 25.5885C170.995 26.4066 169.841 27.5607 168.994 29.0508C168.175 30.5409 167.766 32.2355 167.766 34.1347C167.766 36.0338 168.175 37.7285 168.994 39.2186C169.841 40.7087 170.995 41.8774 172.456 42.7247C173.917 43.5428 175.553 43.9518 177.364 43.9518Z" fill="white"/>
<path d="M220.216 33.6526H226.702V46.0993C225.037 47.3557 223.108 48.3199 220.917 48.9919C218.726 49.6639 216.52 49.9999 214.299 49.9999C211.114 49.9999 208.251 49.3279 205.709 47.9839C203.167 46.6106 201.166 44.7261 199.705 42.3303C198.273 39.9052 197.557 37.1733 197.557 34.1347C197.557 31.0961 198.273 28.3788 199.705 25.983C201.166 23.5579 203.182 21.6734 205.753 20.3293C208.324 18.9561 211.217 18.2695 214.431 18.2695C217.119 18.2695 219.558 18.7224 221.75 19.6281C223.941 20.5339 225.782 21.8487 227.272 23.5725L222.714 27.7798C220.523 25.4717 217.878 24.3176 214.781 24.3176C212.824 24.3176 211.085 24.7266 209.566 25.5447C208.047 26.3628 206.863 27.5169 206.016 29.007C205.169 30.4971 204.745 32.2063 204.745 34.1347C204.745 36.0338 205.169 37.7285 206.016 39.2186C206.863 40.7087 208.032 41.8774 209.522 42.7247C211.041 43.5428 212.765 43.9518 214.694 43.9518C216.739 43.9518 218.58 43.5136 220.216 42.637V33.6526Z" fill="white"/>
<path d="M253.501 42.9H239.258L236.54 49.474H229.265L242.939 18.7954H249.951L263.669 49.474H256.219L253.501 42.9ZM251.266 37.5093L246.401 25.7638L241.537 37.5093H251.266Z" fill="white"/>
<path d="M290.606 43.7765V49.474H266.852V18.7954H290.036V24.4929H273.908V31.1545H288.152V36.6766H273.908V43.7765H290.606Z" fill="white"/>
<path d="M324.173 49.474L324.129 31.0668L315.101 46.2308H311.901L302.917 31.4613V49.474H296.255V18.7954H302.128L313.61 37.86L324.918 18.7954H330.747L330.834 49.474H324.173Z" fill="white"/>
</svg>