<svg width="331" height="51" viewBox="0 0 331 51" fill="none" xmlns="http://www.w3.org/2000/svg">
<path d="M8.21898 37.3489C8.90817 37.3677 9.46251 37.4241 10.1405 37.5821C11.4402 37.928 12.4627 38.4357 13.3542 39.4623C13.3654 39.4736 13.3766 39.4849 13.3916 39.4961C13.3991 39.5112 13.4103 39.5262 13.4216 39.5375L13.4253 39.545C13.8411 40.0264 14.092 40.4701 14.3205 41.068C14.5452 41.711 14.6202 42.23 14.6164 42.9106C14.5977 43.58 14.504 44.0876 14.328 44.7269C14.1145 45.4113 13.0058 47.5698 13.4141 47.9646C14.2531 48.5513 15.7251 45.761 15.9386 45.3135C16.2645 44.5314 16.4218 43.8507 16.4967 43.0046C16.5491 42.0608 16.4667 41.3312 16.1896 40.4287C15.8937 39.5751 15.5528 38.9208 14.9797 38.2251L14.9722 38.2176C14.9573 38.1988 14.9385 38.1837 14.9235 38.1687C14.9123 38.1499 14.8973 38.1311 14.8823 38.1123C13.6875 36.7736 12.253 36.1117 10.5225 35.7319C9.69474 35.589 8.97933 35.5514 8.14032 35.6304C7.6534 35.7019 4.63822 36.2133 4.92663 37.1835C5.17383 37.7212 7.53354 37.3489 8.21898 37.3489Z" fill="#FECC0B"/>
<path d="M8.63241 34.2583C9.44894 34.3486 10.1194 34.4727 10.9135 34.7058C12.8686 35.3451 14.3369 36.2213 15.6891 37.7781C15.6928 37.7819 15.7378 37.8345 15.7452 37.8458C15.7602 37.8646 15.779 37.8834 15.7977 37.8947C15.8089 37.9172 15.8239 37.9398 15.8389 37.9586C17.0974 39.4402 17.6892 40.888 17.9551 42.8208C18.045 43.7459 18.0188 44.4717 17.9064 45.3855C17.7416 46.4309 16.6704 49.4768 17.3558 49.9882C18.7042 50.7215 20.1987 46.6151 20.4235 45.9119C20.7231 44.7725 20.8093 43.7835 20.7681 42.6065C20.5471 40.0494 19.8129 37.9737 18.1836 35.9881C18.1611 35.9618 18.1387 35.9393 18.1124 35.9167C18.0975 35.8866 18.075 35.8603 18.0563 35.8377C18.045 35.8227 17.9776 35.7512 17.9776 35.7475C16.176 33.7733 14.1946 32.679 11.6214 31.9908C10.6176 31.7652 9.73735 31.6561 8.71107 31.6787C7.98443 31.7313 3.75193 32.1863 4.17518 33.6868C4.51603 34.484 7.59489 34.1756 8.62866 34.2621L8.63241 34.2583Z" fill="#FF9900"/>
<path d="M12.5121 27.306C14.1752 27.6482 15.5311 28.028 17.1042 28.7011C19.1006 29.6224 20.625 30.5926 22.0783 32.2472C22.1008 32.2697 22.1233 32.2961 22.1457 32.3149C22.1645 32.3412 22.1832 32.3675 22.2057 32.3938C22.524 32.7624 22.7975 33.1196 23.0746 33.522C24.4979 35.703 25.056 37.6697 25.2171 40.2644C25.2508 41.0992 25.2283 41.8513 25.1572 42.6824C25.0673 43.4721 24.011 48.0711 24.453 48.3343C25.5729 48.6727 26.7565 43.4307 26.8577 42.8967C27 41.9792 27.0562 41.1406 27.0524 40.2118C26.9588 37.2222 26.3445 34.9321 24.7489 32.3976C24.438 31.9313 24.1122 31.4838 23.7488 31.0589C23.7226 31.0288 23.6964 31.0025 23.6702 30.9762C23.6477 30.9461 23.6252 30.916 23.599 30.8897C21.9322 29.0283 20.1231 27.9189 17.8458 26.9262C16.1341 26.2531 14.6021 25.8582 12.7855 25.61C12.2162 25.5499 6.62034 25.046 6.51172 26.1026C6.6091 26.6742 11.8005 27.1781 12.5084 27.306H12.5121Z" fill="#CCFF00"/>
<path d="M8.47476 40.9976C8.79688 40.9375 9.04783 40.8998 9.37744 40.9111C9.65836 40.9224 9.87934 40.96 10.1415 41.0691C10.3475 41.1593 10.4749 41.2383 10.6434 41.3849C10.6472 41.3887 10.6547 41.3925 10.6622 41.3925C10.6659 41.4 10.6697 41.4037 10.6734 41.4113C10.6772 41.415 10.6921 41.4301 10.6959 41.4301C10.8757 41.5842 10.988 41.7347 11.1004 41.9452C11.224 42.1934 11.2802 42.4003 11.3139 42.6748C11.3588 42.7951 11.3251 43.3328 11.3102 43.487C11.2465 44.0699 10.9431 44.916 11.4263 45.2695C12.1117 45.7282 12.8046 44.367 12.9732 43.9082C13.1305 43.4607 13.1904 43.0621 13.1942 42.592C13.1829 42.0468 13.1005 41.6331 12.8983 41.1292C12.6848 40.6479 12.4526 40.2944 12.0742 39.9297C12.0705 39.9221 12.0368 39.8921 12.0256 39.8845C12.0143 39.8733 12.0031 39.8657 11.9881 39.8582C11.9806 39.8469 11.9694 39.8356 11.9581 39.8244C11.6061 39.5311 11.2427 39.3468 10.812 39.1926C10.2876 39.0272 9.86062 38.9783 9.31002 39.0084C8.79688 39.0572 8.37363 39.1588 7.90543 39.3731C7.46345 39.5837 6.17123 40.3771 6.66565 41.0315C7.05144 41.5015 7.90543 41.1142 8.47476 40.9976Z" fill="#FCF509"/>
<path d="M9.33194 30.5863C10.4444 30.6878 11.3845 30.8344 12.4707 31.1202C14.8529 31.8159 16.722 32.7485 18.4786 34.5197C18.5011 34.5422 18.5236 34.561 18.546 34.5761C18.5498 34.5836 18.5798 34.625 18.5872 34.6287C18.5872 34.6287 18.6022 34.6475 18.606 34.6513C20.3289 36.3961 21.1754 38.1786 21.6511 40.589C21.8234 41.6833 21.8534 42.5707 21.7935 43.6726C21.7036 44.7668 20.711 48.8281 21.4301 49.2568C22.9059 49.8246 24.1906 44.7104 24.3479 43.9771C24.5614 42.6572 24.5764 41.5329 24.4378 40.1979C23.9696 37.1444 22.9321 34.7415 20.7934 32.5078C20.7896 32.5041 20.7672 32.4815 20.7672 32.4815C20.7634 32.4777 20.711 32.4364 20.7035 32.4289C20.681 32.3988 20.6548 32.3687 20.6286 32.3424C18.4674 30.2253 16.0365 29.0971 13.1225 28.3789C11.8452 28.1156 10.7066 27.9878 9.40311 28.0104C8.66149 28.0555 3.58624 28.4503 3.8709 29.9771C4.17055 30.8194 8.30566 30.5223 9.3282 30.5938L9.33194 30.5863Z" fill="#EF7F1A"/>
<path d="M13.4962 24.6734C15.4476 24.9704 16.9496 25.3427 18.7474 26.1738C18.7624 26.1813 18.7774 26.1851 18.7924 26.1888C18.8036 26.2001 18.8186 26.2076 18.8336 26.2151C18.9048 26.249 19.2119 26.4032 19.2419 26.4069C20.9349 27.2568 22.051 28.1292 23.4369 29.4002C23.8676 29.7951 25.3022 31.4271 25.8977 31.0435C26.5832 30.4832 24.9913 28.6105 24.6804 28.2119C23.3732 26.6814 21.9237 25.5495 20.1595 24.5906C20.1221 24.5568 19.7812 24.3951 19.6988 24.3575C19.6838 24.35 19.6651 24.3424 19.6464 24.3387C19.6314 24.3274 19.6164 24.3199 19.6014 24.3124C17.8485 23.5001 15.5637 22.9924 13.6385 22.9548C13.1965 22.9473 10.3386 22.9285 10.3873 23.7859C10.4772 24.4741 12.9156 24.5869 13.4962 24.6696V24.6734Z" fill="#57B94C"/>
<path d="M27.7257 39.5774C27.7707 40.2129 27.8419 40.7168 27.8381 41.3674C27.8381 41.3749 27.8419 41.3786 27.8456 41.3824C27.8419 41.3862 27.8419 41.3937 27.8419 41.3974C27.8831 42.0442 27.8493 42.5669 27.8493 43.2024C27.8643 43.7327 27.898 44.1501 28.4561 44.3193C29.0779 44.4923 29.2989 44.0636 29.5311 43.5371C29.7521 42.9768 29.8944 41.9465 29.8794 41.3373C29.8794 41.3298 29.8757 41.3222 29.872 41.3147C29.8757 41.3072 29.8757 41.2997 29.8757 41.2921C29.8532 40.6754 29.6435 39.6564 29.3775 39.1111C29.1079 38.5997 28.8457 38.1785 28.2351 38.4079C27.6958 38.6222 27.6995 39.0472 27.7257 39.5736V39.5774Z" fill="#57B94C"/>
<path d="M23.4765 25.8753C23.8885 26.2025 24.2369 26.4431 24.6301 26.8117C24.6339 26.8154 24.6376 26.8154 24.6414 26.8154C24.6414 26.8192 24.6451 26.8229 24.6489 26.8267C25.0684 27.1651 25.368 27.4773 25.7538 27.8345C26.0834 28.1203 26.3606 28.3346 26.7726 28.0864C27.2258 27.8007 27.091 27.4246 26.9 26.9884C26.6827 26.5371 26.1359 25.8716 25.7538 25.5406C25.7501 25.5369 25.7426 25.5331 25.7388 25.5331C25.7351 25.5294 25.7351 25.5218 25.7276 25.5181C25.3418 25.1872 24.6002 24.7434 24.117 24.6005C23.6526 24.4802 23.2518 24.405 23.0495 24.9051C22.881 25.3564 23.1357 25.5933 23.4728 25.8716L23.4765 25.8753Z" fill="#57B94C"/>
<path d="M9.20921 44.1514C9.75947 44.1514 10.2055 43.6497 10.2055 43.0308C10.2055 42.4119 9.75947 41.9102 9.20921 41.9102C8.65896 41.9102 8.21289 42.4119 8.21289 43.0308C8.21289 43.6497 8.65896 44.1514 9.20921 44.1514Z" fill="#FDF789"/>
<path fill-rule="evenodd" clip-rule="evenodd" d="M14.064 17.8381C14.064 18.6353 13.2175 19.7559 12.2549 19.7559C11.2922 19.7559 10.5469 18.421 10.5469 17.6238C10.5469 16.2099 14.0602 16.537 14.0602 17.8419L14.064 17.8381Z" fill="#1BBA91"/>
<path fill-rule="evenodd" clip-rule="evenodd" d="M6.932 20.0857C6.932 21.1349 7.24662 22.0148 5.93567 22.4209C4.62473 22.8271 2.77441 21.18 2.77441 20.3828C2.77441 18.9689 6.93574 19.0366 6.93574 20.0857H6.932Z" fill="#67C45C"/>
<path fill-rule="evenodd" clip-rule="evenodd" d="M33.9216 40.8314C33.4384 41.0307 32.7979 41.6474 32.1162 40.5042C31.4345 39.3611 32.12 37.3831 32.487 37.2326C33.1388 36.9657 34.4048 40.6321 33.9216 40.8314Z" fill="#0EB78E"/>
<path fill-rule="evenodd" clip-rule="evenodd" d="M21.0956 19.6107C20.8371 20.453 19.6648 21.3894 18.7433 21.1036C17.8257 20.8178 17.5485 19.182 17.8069 18.3396C18.2677 16.8392 21.5188 18.2306 21.0956 19.6107Z" fill="#1BBA91"/>
<path fill-rule="evenodd" clip-rule="evenodd" d="M28.5565 24.0505C28.1145 24.4265 26.8972 24.5168 26.2268 24.0242C25.5563 23.5315 25.7811 22.52 26.223 22.1439C27.0096 21.4784 29.2794 23.4375 28.5565 24.0505Z" fill="#1BBA91"/>
<path fill-rule="evenodd" clip-rule="evenodd" d="M15.3271 2.6849C15.4245 2.15844 14.4844 1.22209 13.2671 0.996464C12.046 0.770838 10.9411 1.47404 10.8437 2.0005C10.6714 2.93309 15.1698 3.54228 15.3309 2.6849H15.3271Z" fill="#723B7E"/>
<path fill-rule="evenodd" clip-rule="evenodd" d="M2.97321 9.37595C2.9807 9.06007 2.33646 8.6013 1.60233 8.58626C0.864456 8.57121 0.283893 9.09391 0.276402 9.40979C0.265165 9.97385 2.96572 9.89488 2.97321 9.37595Z" fill="#723B7E"/>
<path fill-rule="evenodd" clip-rule="evenodd" d="M26.7417 4.48346C27.1724 3.62232 26.8203 1.60297 25.4644 0.858403C24.1086 0.113838 21.9998 2.55812 21.6739 3.20867C21.0934 4.37064 26.3109 5.34084 26.7417 4.4797V4.48346Z" fill="#723B7E"/>
<path fill-rule="evenodd" clip-rule="evenodd" d="M36.1914 10.0656C36.7532 9.38118 36.7382 7.53481 35.5247 6.62854C34.3148 5.72228 31.8428 7.4972 31.4158 8.01614C30.6554 8.93745 35.6295 10.75 36.1914 10.0656Z" fill="#723B7E"/>
<path fill-rule="evenodd" clip-rule="evenodd" d="M42.7165 34.3822C43.3832 34.2769 44.3046 33.2052 44.0649 32.0733C43.8252 30.9377 41.5142 30.7045 41.0085 30.7835C40.1096 30.9264 42.0536 34.4913 42.7203 34.3822H42.7165Z" fill="#723B7E"/>
<path fill-rule="evenodd" clip-rule="evenodd" d="M13.7646 15.8095C13.2739 16.2269 10.0864 15.9637 9.73059 15.4259C9.52084 15.1063 9.58451 13.5231 9.98529 13.2148C10.4085 12.8876 13.2814 12.9177 13.8882 13.5269C14.1541 13.7939 14.1354 15.4936 13.7646 15.8132V15.8095Z" fill="#07A8D4"/>
<path fill-rule="evenodd" clip-rule="evenodd" d="M4.81734 15.973C4.44653 16.4994 1.29276 17.0334 0.813328 16.6009C0.528665 16.3452 0.2028 14.7959 0.517428 14.3936C0.847038 13.9724 3.63749 13.288 4.37536 13.728C4.69748 13.9198 5.10201 15.5743 4.81734 15.973Z" fill="#07A8D4"/>
<path fill-rule="evenodd" clip-rule="evenodd" d="M5.67928 18.4418C5.26726 18.8366 2.12473 19.3932 1.69024 19.1111C1.43555 18.9457 1.24452 17.8589 1.58911 17.5581C1.94869 17.2384 4.75037 16.5992 5.43581 16.8699C5.73546 16.9903 5.99016 18.1447 5.67928 18.4418Z" fill="#12BE8E"/>
<path fill-rule="evenodd" clip-rule="evenodd" d="M21.5081 17.9746C20.9051 18.2717 17.9423 17.0495 17.7775 16.3726C17.6801 15.974 18.2532 14.3157 18.7439 14.1051C19.2533 13.8832 21.9913 14.7632 22.3696 15.5905C22.5381 15.9515 21.9651 17.749 21.5081 17.9746Z" fill="#07A8D4"/>
<path fill-rule="evenodd" clip-rule="evenodd" d="M29.5769 22.8058C28.9252 22.9149 26.3257 21.1174 26.3145 20.4894C26.307 20.1171 27.2322 18.816 27.7491 18.7521C28.2922 18.6881 30.7493 20.1284 30.9365 20.9406C31.0189 21.2979 30.0713 22.7231 29.5769 22.8058Z" fill="#07A8D4"/>
<path fill-rule="evenodd" clip-rule="evenodd" d="M38.107 37.8149C37.5714 37.4276 36.1893 33.968 36.6275 33.5167C36.8859 33.2497 39.1483 30.9784 39.5565 31.3056C39.9835 31.6478 41.4668 35.2841 41.021 35.9911C40.8263 36.2994 38.5153 38.1082 38.1107 37.8149H38.107Z" fill="#07A8D4"/>
<path fill-rule="evenodd" clip-rule="evenodd" d="M34.2698 39.1916C33.7604 38.7704 33.4008 35.6229 33.8653 35.198C34.1387 34.946 35.7268 34.7919 36.1126 35.1416C36.5209 35.5101 37.049 38.3191 36.5621 38.9923C36.3486 39.2893 34.6556 39.5074 34.2698 39.1878V39.1916Z" fill="#07A8D4"/>
<path fill-rule="evenodd" clip-rule="evenodd" d="M14.4911 12.6602C13.9443 12.9272 10.4796 12.5887 10.1088 12.1939C9.88783 11.9607 10.0077 10.8514 10.4572 10.6559C10.9291 10.449 14.0567 10.607 14.6971 11.0658C14.9781 11.2651 14.9069 12.4571 14.4911 12.6639V12.6602Z" fill="#0781CC"/>
<path fill-rule="evenodd" clip-rule="evenodd" d="M3.90054 12.3942C3.54846 12.7853 0.7243 13.3004 0.316033 13.0109C0.0725711 12.8417 -0.155909 11.7549 0.139991 11.4541C0.450874 11.1419 2.95666 10.5328 3.59341 10.8148C3.87432 10.9389 4.16648 12.0933 3.90054 12.3904V12.3942Z" fill="#0781CC"/>
<path fill-rule="evenodd" clip-rule="evenodd" d="M22.8519 14.8328C22.2414 14.9569 19.0427 13.5693 18.8142 13.0429C18.6794 12.7308 19.1551 11.5913 19.6495 11.5161C20.1664 11.4334 23.1029 12.5315 23.5673 13.2046C23.7696 13.5016 23.3126 14.7426 22.8519 14.8366V14.8328Z" fill="#0781CC"/>
<path fill-rule="evenodd" clip-rule="evenodd" d="M31.5985 19.0706C30.9805 19.1308 27.8904 17.6341 27.7031 17.1415C27.5908 16.8519 28.1451 15.8705 28.6433 15.8404C29.1639 15.8103 32.0143 17.0249 32.4301 17.6642C32.6136 17.9462 32.0667 19.0217 31.6023 19.0668L31.5985 19.0706Z" fill="#0781CC"/>
<path fill-rule="evenodd" clip-rule="evenodd" d="M15.036 10.132C14.4704 10.4403 10.6612 9.79353 10.2117 9.26331C9.94575 8.95119 9.95324 7.54479 10.4214 7.31916C10.9121 7.08226 14.3356 7.48086 15.0847 8.10509C15.4143 8.3796 15.463 9.89882 15.036 10.132Z" fill="#155A95"/>
<path fill-rule="evenodd" clip-rule="evenodd" d="M24.2422 12.5151C23.6167 12.7332 20.0359 11.2403 19.7175 10.5747C19.5302 10.1799 19.8561 8.65689 20.3655 8.51023C20.9011 8.35606 24.1598 9.49547 24.7478 10.3265C25.0063 10.6913 24.7104 12.3496 24.2384 12.5151H24.2422Z" fill="#155A95"/>
<path fill-rule="evenodd" clip-rule="evenodd" d="M33.2674 16.3541C32.6307 16.5007 29.166 14.8762 28.8964 14.2557C28.7353 13.8872 29.1698 12.5485 29.6904 12.4545C30.2335 12.3567 33.4023 13.639 33.9304 14.4325C34.1626 14.7784 33.7506 16.2413 33.2674 16.3541Z" fill="#155A95"/>
<path fill-rule="evenodd" clip-rule="evenodd" d="M14.8352 6.80178C14.1985 6.7717 10.6477 6.28284 10.1383 5.94816C9.83865 5.74886 9.73378 3.6543 10.2619 3.69191C10.8162 3.72951 14.3184 4.1206 15.1649 4.57561C15.5357 4.77491 15.3184 6.82434 14.8352 6.80178Z" fill="#45398F"/>
<path fill-rule="evenodd" clip-rule="evenodd" d="M24.9685 8.78337C24.3692 8.56526 20.9757 7.659 20.5974 7.1551C20.3727 6.85803 20.957 4.60553 21.4477 4.80107C21.9646 5.00414 25.3468 5.79007 26.0098 6.52335C26.3019 6.84675 25.4255 8.94883 24.9685 8.78337Z" fill="#45398F"/>
<path fill-rule="evenodd" clip-rule="evenodd" d="M34.4312 13.7107C33.8507 13.4663 30.5283 12.387 30.1875 11.9019C29.9852 11.6161 30.7269 9.64567 31.2025 9.86001C31.7007 10.0856 35.0193 11.0596 35.6261 11.7703C35.892 12.0824 34.8695 13.8987 34.4275 13.7145L34.4312 13.7107Z" fill="#45398F"/>
<path d="M56.1151 11.1821C55.0807 11.1821 54.1448 10.9555 53.3074 10.5024C52.4798 10.0393 51.8296 9.40884 51.3568 8.61086C50.8839 7.80304 50.6475 6.89669 50.6475 5.89184C50.6475 4.88698 50.8839 3.98556 51.3568 3.18759C51.8296 2.37976 52.4848 1.74927 53.3222 1.2961C54.1595 0.833074 55.0954 0.601562 56.1298 0.601562C56.9377 0.601562 57.6765 0.739484 58.3464 1.01533C59.0163 1.28132 59.5877 1.68031 60.0606 2.21229L59.1001 3.14326C58.3218 2.32558 57.3514 1.91674 56.189 1.91674C55.4205 1.91674 54.726 2.08914 54.1054 2.43395C53.4847 2.77875 52.9971 3.25655 52.6424 3.86735C52.2976 4.46829 52.1252 5.14312 52.1252 5.89184C52.1252 6.64055 52.2976 7.32031 52.6424 7.93111C52.9971 8.53205 53.4847 9.00492 54.1054 9.34973C54.726 9.69453 55.4205 9.86693 56.189 9.86693C57.3416 9.86693 58.312 9.45317 59.1001 8.62564L60.0606 9.55661C59.5877 10.0886 59.0114 10.4925 58.3317 10.7683C57.6618 11.0442 56.9229 11.1821 56.1151 11.1821Z" fill="#7E7F81"/>
<path d="M80.6699 0.71978V11.0639H79.1921V6.45337H73.2517V11.0639H71.7739V0.71978H73.2517V5.16775H79.1921V0.71978H80.6699Z" fill="#7E7F81"/>
<path d="M99.962 8.47787H94.4648L93.327 11.0639H91.8049L96.4893 0.71978H97.9523L102.651 11.0639H101.1L99.962 8.47787ZM99.4448 7.29568L97.2134 2.22707L94.982 7.29568H99.4448Z" fill="#7E7F81"/>
<path d="M120.716 11.0639L118.484 7.88677C118.208 7.90648 117.992 7.91633 117.834 7.91633H115.278V11.0639H113.8V0.71978H117.834C119.174 0.71978 120.228 1.03996 120.996 1.68031C121.765 2.32065 122.149 3.20237 122.149 4.32544C122.149 5.12342 121.952 5.80317 121.558 6.36471C121.164 6.92625 120.602 7.33509 119.873 7.59123L122.326 11.0639H120.716ZM117.79 6.66026C118.726 6.66026 119.44 6.4583 119.932 6.05439C120.425 5.65047 120.671 5.07416 120.671 4.32544C120.671 3.57673 120.425 3.00534 119.932 2.61128C119.44 2.20736 118.726 2.00541 117.79 2.00541H115.278V6.66026H117.79Z" fill="#7E7F81"/>
<path d="M134.142 0.71978H135.619V11.0639H134.142V0.71978Z" fill="#7E7F81"/>
<path d="M150.376 2.00541H146.829V0.71978H155.385V2.00541H151.839V11.0639H150.376V2.00541Z" fill="#7E7F81"/>
<path d="M172.671 8.47787H167.174L166.036 11.0639H164.514L169.198 0.71978H170.661L175.36 11.0639H173.809L172.671 8.47787ZM172.154 7.29568L169.922 2.22707L167.691 7.29568H172.154Z" fill="#7E7F81"/>
<path d="M193.469 5.69973C194.07 5.86721 194.543 6.17261 194.887 6.61592C195.232 7.04939 195.405 7.60108 195.405 8.27098C195.405 9.16747 195.065 9.85708 194.385 10.3398C193.715 10.8225 192.735 11.0639 191.444 11.0639H186.509V0.71978H191.149C192.331 0.71978 193.242 0.956217 193.883 1.42909C194.533 1.90196 194.858 2.55709 194.858 3.39447C194.858 3.93631 194.73 4.40426 194.474 4.79832C194.227 5.19238 193.892 5.49285 193.469 5.69973ZM187.986 1.91674V5.22686H191.016C191.774 5.22686 192.356 5.08894 192.76 4.81309C193.173 4.5274 193.38 4.11363 193.38 3.5718C193.38 3.02997 193.173 2.62113 192.76 2.34528C192.356 2.05959 191.774 1.91674 191.016 1.91674H187.986ZM191.385 9.86693C192.223 9.86693 192.853 9.72901 193.277 9.45317C193.7 9.17732 193.912 8.74386 193.912 8.15276C193.912 7.00014 193.07 6.42382 191.385 6.42382H187.986V9.86693H191.385Z" fill="#7E7F81"/>
<path d="M207.298 0.71978H208.776V9.77827H214.376V11.0639H207.298V0.71978Z" fill="#7E7F81"/>
<path d="M233.184 9.77827V11.0639H225.677V0.71978H232.977V2.00541H227.155V5.18253H232.342V6.4386H227.155V9.77827H233.184Z" fill="#7E7F81"/>
<path d="M260.234 2.00541V5.61107H265.42V6.88192H260.234V11.0639H258.756V0.71978H266.056V2.00541H260.234Z" fill="#7E7F81"/>
<path d="M282.027 11.1821C280.647 11.1821 279.574 10.7881 278.805 9.99993C278.037 9.2118 277.653 8.07888 277.653 6.60115V0.71978H279.13V6.54204C279.13 8.75863 280.101 9.86693 282.041 9.86693C282.987 9.86693 283.711 9.59602 284.214 9.05418C284.716 8.50249 284.967 7.66511 284.967 6.54204V0.71978H286.401V6.60115C286.401 8.08873 286.017 9.22658 285.248 10.0147C284.48 10.793 283.406 11.1821 282.027 11.1821Z" fill="#7E7F81"/>
<path d="M307.932 0.71978V11.0639H306.72L300.513 3.35014V11.0639H299.036V0.71978H300.247L306.454 8.43353V0.71978H307.932Z" fill="#7E7F81"/>
<path d="M320.633 0.71978H324.992C326.086 0.71978 327.056 0.936514 327.903 1.36998C328.751 1.80345 329.406 2.41424 329.869 3.20237C330.342 3.98064 330.578 4.87713 330.578 5.89184C330.578 6.90655 330.342 7.80796 329.869 8.59608C329.406 9.37436 328.751 9.98023 327.903 10.4137C327.056 10.8472 326.086 11.0639 324.992 11.0639H320.633V0.71978ZM324.904 9.77827C325.741 9.77827 326.475 9.61572 327.105 9.29062C327.746 8.96552 328.238 8.51235 328.583 7.93111C328.928 7.34001 329.1 6.66026 329.1 5.89184C329.1 5.12342 328.928 4.44859 328.583 3.86735C328.238 3.27625 327.746 2.81816 327.105 2.49306C326.475 2.16796 325.741 2.00541 324.904 2.00541H322.111V9.77827H324.904Z" fill="#7E7F81"/>
<path d="M64.8507 19.397C67.568 19.397 69.92 19.8499 71.9068 20.7556C73.9228 21.6614 75.4714 22.947 76.5524 24.6124C77.6335 26.2778 78.174 28.25 78.174 30.5289C78.174 32.7787 77.6335 34.7509 76.5524 36.4455C75.4714 38.1109 73.9228 39.3965 71.9068 40.3023C69.92 41.1788 67.568 41.6171 64.8507 41.6171H58.6712V50.0756H51.5713V19.397H64.8507ZM64.4563 35.832C66.5892 35.832 68.2108 35.3791 69.321 34.4733C70.4313 33.5384 70.9864 32.2236 70.9864 30.5289C70.9864 28.8051 70.4313 27.4903 69.321 26.5846C68.2108 25.6496 66.5892 25.1821 64.4563 25.1821H58.6712V35.832H64.4563Z" fill="#00BFF3"/>
<path d="M98.528 50.6015C95.3433 50.6015 92.4653 49.9149 89.8942 48.5417C87.3522 47.1684 85.3508 45.2839 83.8899 42.888C82.4583 40.463 81.7424 37.7457 81.7424 34.7363C81.7424 31.7269 82.4583 29.0242 83.8899 26.6284C85.3508 24.2033 87.3522 22.3042 89.8942 20.9309C92.4653 19.5577 95.3433 18.8711 98.528 18.8711C101.713 18.8711 104.576 19.5577 107.118 20.9309C109.66 22.3042 111.661 24.2033 113.122 26.6284C114.583 29.0242 115.314 31.7269 115.314 34.7363C115.314 37.7457 114.583 40.463 113.122 42.888C111.661 45.2839 109.66 47.1684 107.118 48.5417C104.576 49.9149 101.713 50.6015 98.528 50.6015ZM98.528 44.5534C100.339 44.5534 101.976 44.1444 103.437 43.3263C104.897 42.479 106.037 41.3103 106.855 39.8202C107.702 38.3301 108.126 36.6354 108.126 34.7363C108.126 32.8371 107.702 31.1425 106.855 29.6524C106.037 28.1623 104.897 27.0082 103.437 26.1901C101.976 25.3428 100.339 24.9192 98.528 24.9192C96.7165 24.9192 95.0803 25.3428 93.6194 26.1901C92.1585 27.0082 91.0044 28.1623 90.1571 29.6524C89.339 31.1425 88.93 32.8371 88.93 34.7363C88.93 36.6354 89.339 38.3301 90.1571 39.8202C91.0044 41.3103 92.1585 42.479 93.6194 43.3263C95.0803 44.1444 96.7165 44.5534 98.528 44.5534Z" fill="#00BFF3"/>
<path d="M148.567 50.0756L148.523 31.6684L139.495 46.8324H136.295L127.311 32.0629V50.0756H120.649V19.397H126.522L138.005 38.4616L149.312 19.397H155.141L155.229 50.0756H148.567Z" fill="#00BFF3"/>
<path d="M177.364 50.6015C174.18 50.6015 171.302 49.9149 168.731 48.5417C166.189 47.1684 164.187 45.2839 162.726 42.888C161.295 40.463 160.579 37.7457 160.579 34.7363C160.579 31.7269 161.295 29.0242 162.726 26.6284C164.187 24.2033 166.189 22.3042 168.731 20.9309C171.302 19.5577 174.18 18.8711 177.364 18.8711C180.549 18.8711 183.412 19.5577 185.954 20.9309C188.496 22.3042 190.498 24.2033 191.959 26.6284C193.419 29.0242 194.15 31.7269 194.15 34.7363C194.15 37.7457 193.419 40.463 191.959 42.888C190.498 45.2839 188.496 47.1684 185.954 48.5417C183.412 49.9149 180.549 50.6015 177.364 50.6015ZM177.364 44.5534C179.176 44.5534 180.812 44.1444 182.273 43.3263C183.734 42.479 184.873 41.3103 185.691 39.8202C186.539 38.3301 186.962 36.6354 186.962 34.7363C186.962 32.8371 186.539 31.1425 185.691 29.6524C184.873 28.1623 183.734 27.0082 182.273 26.1901C180.812 25.3428 179.176 24.9192 177.364 24.9192C175.553 24.9192 173.917 25.3428 172.456 26.1901C170.995 27.0082 169.841 28.1623 168.994 29.6524C168.175 31.1425 167.766 32.8371 167.766 34.7363C167.766 36.6354 168.175 38.3301 168.994 39.8202C169.841 41.3103 170.995 42.479 172.456 43.3263C173.917 44.1444 175.553 44.5534 177.364 44.5534Z" fill="#00BFF3"/>
<path d="M220.216 34.2542H226.702V46.7009C225.037 47.9573 223.108 48.9215 220.917 49.5935C218.726 50.2655 216.52 50.6015 214.299 50.6015C211.114 50.6015 208.251 49.9295 205.709 48.5855C203.167 47.2122 201.166 45.3277 199.705 42.9319C198.273 40.5068 197.557 37.7749 197.557 34.7363C197.557 31.6977 198.273 28.9804 199.705 26.5846C201.166 24.1595 203.182 22.275 205.753 20.9309C208.324 19.5577 211.217 18.8711 214.431 18.8711C217.119 18.8711 219.558 19.324 221.75 20.2297C223.941 21.1355 225.782 22.4503 227.272 24.1741L222.714 28.3814C220.523 26.0733 217.878 24.9192 214.781 24.9192C212.824 24.9192 211.085 25.3282 209.566 26.1463C208.047 26.9644 206.863 28.1185 206.016 29.6086C205.169 31.0987 204.745 32.8079 204.745 34.7363C204.745 36.6354 205.169 38.3301 206.016 39.8202C206.863 41.3103 208.032 42.479 209.522 43.3263C211.041 44.1444 212.765 44.5534 214.694 44.5534C216.739 44.5534 218.58 44.1152 220.216 43.2386V34.2542Z" fill="#00BFF3"/>
<path d="M253.501 43.5016H239.258L236.54 50.0756H229.265L242.939 19.397H249.951L263.669 50.0756H256.219L253.501 43.5016ZM251.266 38.1109L246.401 26.3654L241.537 38.1109H251.266Z" fill="#00BFF3"/>
<path d="M290.606 44.3781V50.0756H266.852V19.397H290.036V25.0945H273.908V31.7561H288.152V37.2782H273.908V44.3781H290.606Z" fill="#00BFF3"/>
<path d="M324.173 50.0756L324.129 31.6684L315.101 46.8324H311.901L302.917 32.0629V50.0756H296.255V19.397H302.128L313.61 38.4616L324.918 19.397H330.747L330.834 50.0756H324.173Z" fill="#00BFF3"/>
</svg>