<svg width="193" height="40" fill="none" xmlns="http://www.w3.org/2000/svg"><path d="M6.653 29.694a7.28 7.28 0 0 1 1.558.189c1.053.28 1.882.692 2.605 1.524a3.857 3.857 0 0 1 .784 1.302 4.1 4.1 0 0 1 .24 1.494 5.736 5.736 0 0 1-.234 1.472c-.127.406-.642 1.453-.78 2.11-.073.349.236.667.542.483.65-.39 1.408-1.834 1.543-2.117a5.93 5.93 0 0 0 .453-1.872 5.526 5.526 0 0 0-.25-2.088c-.239-.692-.515-1.223-.98-1.787l-.006-.006c-.023-.029-.05-.056-.072-.085-.97-1.086-2.133-1.622-3.536-1.93a6.945 6.945 0 0 0-1.93-.082c-.316.046-1.94.32-2.46.829-.229.223-.046.584.27.633.646.102 1.834-.07 2.253-.07Z" fill="#FECC0B"/><path d="M6.997 27.19a10.117 10.117 0 0 1 1.85.361c1.586.518 2.777 1.228 3.873 2.49.003.003.04.046.045.055l.074.089.002.003c1.02 1.2 1.5 2.374 1.716 3.941.073.75.052 1.339-.04 2.08-.108.686-.698 2.435-.623 3.297.027.32.34.575.644.47.948-.326 1.864-2.851 2.02-3.34.243-.924.313-1.726.28-2.68-.18-2.073-.775-3.756-2.096-5.366l-.002-.002a8.875 8.875 0 0 1-.1-.12c-.038-.05-.088-.099-.13-.145-1.444-1.555-3.033-2.424-5.088-2.974a9.33 9.33 0 0 0-2.36-.253c-.588.043-4.02.412-3.677 1.628.277.646 2.769.397 3.609.466h.003Z" fill="#F90"/><path d="M10.149 21.558h.003c1.347.277 2.446.585 3.721 1.13 1.619.748 2.855 1.534 4.033 2.876.036.036.068.077.101.116l.002.003c.258.298.48.588.704.914 1.154 1.768 1.607 3.363 1.738 5.466.027.677.009 1.287-.05 1.96-.052.47-.525 2.591-.635 3.78-.05.546.403.824.698.36.675-1.06 1.254-3.634 1.317-3.965.115-.744.16-1.424.157-2.177-.075-2.424-.573-4.28-1.867-6.335a11.302 11.302 0 0 0-.812-1.087c-.04-.046-.078-.093-.12-.136-1.352-1.509-2.818-2.408-4.665-3.213a16.947 16.947 0 0 0-4.102-1.067c-.347-.037-2.998-.277-4.33-.03-.6.112-.53.648.064.79 1.273.301 3.619.539 4.04.614h.003Z" fill="#CF0"/><path d="M6.87 32.659a3.1 3.1 0 0 1 .731-.07c.228.009.407.04.62.128a1.415 1.415 0 0 1 .408.257c.007.006.016.01.02.017a.034.034 0 0 0 .005.006l.003.002.025.021c.139.121.227.241.316.407.183.368.207.799.173 1.21 0 .015-.002.029-.003.04-.052.473-.298 1.158.094 1.445.556.372 1.117-.732 1.254-1.104.128-.362.176-.686.18-1.067a3.109 3.109 0 0 0-.24-1.186 2.867 2.867 0 0 0-.644-.948c-.016-.016-.032-.034-.049-.048a.506.506 0 0 0-.007-.007l-.016-.012c-.013-.012-.028-.023-.04-.036l-.007-.006a2.92 2.92 0 0 0-.929-.513 3.167 3.167 0 0 0-1.218-.149c-.416.04-.759.122-1.138.296-.359.17-1.406.814-1.006 1.344.313.381 1.006.067 1.467-.027Z" fill="#FCF509"/><path d="M7.568 24.223c.001-.002.003-.003.005-.003.9.082 1.662.201 2.541.433 1.932.564 3.447 1.32 4.871 2.756l.03.028a.26.26 0 0 1 .042.042l.031.037c1.397 1.414 2.083 2.86 2.47 4.813.139.888.163 1.607.114 2.5-.058.71-.584 2.959-.494 4.008.032.382.43.647.745.43.954-.656 1.713-3.689 1.82-4.19.174-1.07.186-1.983.073-3.065-.38-2.475-1.22-4.423-2.954-6.234l-.021-.022c-.032-.031-.065-.06-.095-.094a.636.636 0 0 0-.018-.018c-1.752-1.717-3.723-2.631-6.085-3.214a13.197 13.197 0 0 0-3.016-.299c-.52.032-3.679.277-4.363 1.146-.198.252-.05.62.252.726.947.331 3.357.175 4.048.223.002 0 .003-.001.004-.003Z" fill="#EF7F1A"/><path d="m10.943 19.424.001.002c1.582.24 2.799.542 4.256 1.216l.069.033c.22.104.444.21.657.324 1.196.638 2.043 1.312 3.076 2.259.35.32 1.512 1.643 1.995 1.332.556-.454-.735-1.973-.987-2.296a12.354 12.354 0 0 0-3.3-2.73 8.658 8.658 0 0 0-.739-.395l-.002-.001-.077-.035c-1.42-.659-3.273-1.07-4.834-1.1-.358-.007-2.675-.022-2.636.673.073.557 2.046.65 2.52.716v.002ZM22.466 31.504c.037.515.094.924.091 1.45v.002l.003.023c.034.525.006.948.006 1.464.013.43.04.768.492.905.505.14.684-.207.872-.634.179-.454.294-1.29.282-1.783v-.001l-.003-.036c-.018-.5-.188-1.326-.404-1.768-.218-.415-.43-.756-.926-.57-.437.173-.434.518-.413.945v.003ZM19.034 20.392c.334.265.616.46.935.76l.015.01v.001c.34.275.583.528.896.817.268.232.492.406.826.205.368-.232.258-.537.104-.89-.177-.366-.62-.906-.93-1.174l-.001-.002c-.006-.004-.012-.008-.017-.014l-.006-.005c-.313-.268-.912-.626-1.303-.741-.376-.098-.701-.159-.865.246-.137.366.07.558.343.784l.003.003Z" fill="#57B94C"/><path d="M7.47 35.21c.446 0 .808-.406.808-.908s-.362-.908-.808-.908c-.446 0-.808.406-.808.908s.362.909.808.909Z" fill="#FDF789"/><path fill-rule="evenodd" clip-rule="evenodd" d="m11.41 13.878.002.001c-.002.646-.687 1.553-1.467 1.553s-1.384-1.083-1.384-1.729c0-1.145 2.844-.881 2.848.175h.001Z" fill="#1BBA91"/><path fill-rule="evenodd" clip-rule="evenodd" d="m5.622 15.701-.001.002c0 .85.254 1.562-.808 1.892-1.063.329-2.563-1.007-2.563-1.653 0-1.146 3.37-1.091 3.374-.242l-.002.001Z" fill="#67C45C"/><path fill-rule="evenodd" clip-rule="evenodd" d="M27.496 32.514c-.392.161-.911.661-1.464-.266-.553-.926.003-2.53.3-2.652.529-.216 1.555 2.756 1.164 2.918Z" fill="#0EB78E"/><path fill-rule="evenodd" clip-rule="evenodd" d="M17.098 15.322c-.21.683-1.16 1.442-1.907 1.21-.744-.231-.968-1.557-.759-2.24.374-1.217 3.01-.089 2.666 1.03ZM23.148 18.914c-.358.305-1.345.378-1.889-.021-.544-.4-.361-1.22-.003-1.524.638-.54 2.478 1.048 1.892 1.545Z" fill="#1BBA91"/><path fill-rule="evenodd" clip-rule="evenodd" d="M12.425 1.599v-.001C12.5 1.17 11.738.413 10.753.23c-.99-.183-1.886.387-1.965.814-.14.756 3.502 1.25 3.638.556l-.002-.001ZM2.415 7.021c.006-.256-.516-.628-1.111-.64-.599-.012-1.07.411-1.075.667-.01.458 2.18.394 2.186-.027ZM21.682 3.05c0 .001 0 .001 0 0 .349-.698.063-2.334-1.035-2.937-1.1-.603-2.81 1.378-3.073 1.906-.47.941 3.754 1.727 4.107 1.031h.001ZM29.344 7.584c.455-.555.443-2.052-.54-2.786-.981-.735-2.986.704-3.332 1.125-.616.746 3.416 2.216 3.872 1.661ZM34.632 27.292c.54-.087 1.286-.955 1.092-1.872-.195-.92-2.068-1.11-2.478-1.045-.729.116.844 3 1.386 2.918Z" fill="#723B7E"/><path fill-rule="evenodd" clip-rule="evenodd" d="M11.157 12.235h-.002c-.4.337-2.98.123-3.269-.312-.17-.26-.118-1.543.207-1.793.343-.265 2.672-.24 3.164.253.215.216.2 1.591-.1 1.853ZM3.901 12.366c-.3.426-2.857.86-3.246.509-.231-.208-.495-1.464-.24-1.79.267-.341 2.53-.896 3.128-.54.26.156.589 1.497.358 1.82Z" fill="#07A8D4"/><path fill-rule="evenodd" clip-rule="evenodd" d="M4.602 14.367c-.334.32-2.882.772-3.234.543-.206-.134-.361-1.015-.082-1.259.292-.26 2.563-.777 3.119-.558.243.098.45 1.034.197 1.274Z" fill="#12BE8E"/><path fill-rule="evenodd" clip-rule="evenodd" d="M17.436 13.992c-.49.24-2.891-.75-3.025-1.299-.079-.323.386-1.668.784-1.838.413-.18 2.632.533 2.94 1.204.136.293-.329 1.75-.7 1.933ZM23.979 17.906c-.528.088-2.636-1.37-2.645-1.878-.006-.302.744-1.357 1.163-1.409.44-.052 2.432 1.116 2.584 1.774.067.29-.701 1.446-1.102 1.513ZM30.895 30.073l-.003-.001c-.435-.318-1.553-3.119-1.198-3.484.21-.217 2.043-2.058 2.374-1.793.346.278 1.549 3.226 1.188 3.799-.158.25-2.027 1.713-2.359 1.48l-.002-.002ZM27.793 31.183v.001c-.413-.345-.704-2.892-.328-3.237.222-.204 1.51-.329 1.822-.045.331.298.76 2.576.365 3.121-.173.241-1.543.418-1.858.16Z" fill="#07A8D4"/><path fill-rule="evenodd" clip-rule="evenodd" d="M11.744 9.684c0-.001 0-.002-.001-.001-.448.215-3.252-.06-3.552-.379-.18-.189-.082-1.088.282-1.247.383-.167 2.918-.04 3.438.333.227.16.17 1.125-.166 1.295l-.001-.001ZM3.162 9.462v.003c-.29.317-2.575.733-2.906.499C.06 9.827-.126 8.945.113 8.702c.253-.253 2.284-.747 2.8-.519.228.1.464 1.034.25 1.277v.002ZM18.525 11.443s0-.002-.002-.001c-.498.098-3.087-1.025-3.272-1.452-.11-.253.277-1.177.677-1.238.42-.067 2.8.824 3.177 1.37.163.24-.206 1.244-.579 1.322l-.001-.001ZM25.617 14.874a.005.005 0 0 1-.004.001c-.505.046-3.004-1.165-3.156-1.564-.09-.235.358-1.03.762-1.055.422-.024 2.733.96 3.07 1.479.149.228-.293 1.097-.669 1.137-.001 0-.002 0-.003.002Z" fill="#0781CC"/><path fill-rule="evenodd" clip-rule="evenodd" d="M12.183 7.635c-.458.25-3.547-.274-3.911-.704-.216-.253-.21-1.393.17-1.576.398-.192 3.173.13 3.78.637.268.222.307 1.454-.039 1.643ZM19.65 9.565c-.511.175-3.41-1.034-3.667-1.573-.152-.32.112-1.555.525-1.674.434-.125 3.076.799 3.553 1.473.21.295-.03 1.637-.412 1.774ZM26.974 12.68c-.517.12-3.325-1.198-3.544-1.7-.13-.3.222-1.385.644-1.461.44-.08 3.009.96 3.437 1.603.188.28-.146 1.467-.537 1.558Z" fill="#155A95"/><path fill-rule="evenodd" clip-rule="evenodd" d="M12.025 4.934c-.516-.025-3.395-.421-3.808-.692-.243-.162-.328-1.86.1-1.83.45.03 3.29.348 3.975.717.301.161.125 1.823-.267 1.805ZM20.246 6.54c-.486-.176-3.237-.91-3.544-1.32-.182-.24.292-2.066.69-1.908.419.165 3.16.802 3.698 1.396.237.263-.474 1.967-.844 1.833ZM27.908 10.532v-.002c-.476-.2-3.163-1.073-3.439-1.466-.164-.231.437-1.829.823-1.655.404.183 3.094.973 3.586 1.549.215.252-.61 1.72-.97 1.577a.001.001 0 0 1 0-.003Z" fill="#45398F"/><path d="M44.223 36.35c-.407 0-.733-.124-.98-.37-.248-.248-.372-.584-.372-1.008V18.885c0-.406.124-.733.371-.98.265-.248.6-.371 1.007-.371H56.97c.406 0 .733.123.98.37.266.248.398.575.398.981v16.113c0 .407-.123.734-.37.981-.248.247-.575.371-.982.371-.406 0-.733-.124-.98-.37-.247-.248-.371-.575-.371-.981V19.76h-10.07v15.238c0 .407-.124.734-.372.981-.247.247-.574.371-.98.371ZM70.726 36.43c-1.767 0-3.304-.39-4.612-1.166-1.29-.778-2.288-1.882-2.994-3.313-.707-1.431-1.06-3.119-1.06-5.062 0-1.961.344-3.657 1.033-5.088.707-1.45 1.714-2.553 3.021-3.313 1.308-.777 2.845-1.166 4.612-1.166 1.784 0 3.33.389 4.638 1.166 1.307.76 2.305 1.864 2.994 3.313.707 1.43 1.06 3.118 1.06 5.062 0 1.943-.353 3.64-1.06 5.088-.689 1.43-1.687 2.535-2.995 3.313-1.307.777-2.853 1.166-4.637 1.166Zm0-2.227c1.873 0 3.33-.636 4.373-1.908 1.042-1.272 1.563-3.083 1.563-5.433 0-2.35-.521-4.151-1.564-5.406-1.024-1.272-2.482-1.908-4.372-1.908-1.855 0-3.304.636-4.347 1.908-1.024 1.255-1.537 3.057-1.537 5.407s.513 4.16 1.537 5.432c1.043 1.272 2.492 1.908 4.347 1.908ZM99.731 17.401c.389 0 .707.133.955.398.247.247.371.574.371.98v16.272c0 .407-.115.725-.345.955-.212.23-.512.344-.901.344-.371 0-.663-.115-.875-.344-.212-.23-.318-.548-.318-.955V22.728l-5.194 9.885c-.336.619-.769.928-1.299.928-.53 0-.962-.31-1.298-.928l-5.221-9.779v12.217c0 .407-.106.725-.318.955-.212.23-.512.344-.901.344-.371 0-.671-.115-.901-.344-.212-.248-.318-.566-.318-.955V18.78c0-.406.123-.733.37-.98.248-.265.566-.398.955-.398.548 0 .99.318 1.325.954l6.334 12.112 6.28-12.112c.337-.636.77-.954 1.3-.954ZM121.909 34.627c.088.212.132.39.132.53 0 .336-.141.619-.424.849-.265.23-.565.344-.901.344-.23 0-.45-.062-.662-.185a1.363 1.363 0 0 1-.451-.583l-1.749-3.976h-9.7l-1.749 3.976a1.296 1.296 0 0 1-.477.583 1.296 1.296 0 0 1-.662.185 1.47 1.47 0 0 1-.954-.344 1.08 1.08 0 0 1-.398-.849c0-.14.044-.317.133-.53l7.473-16.351a1.42 1.42 0 0 1 .583-.663c.283-.159.574-.238.875-.238.3 0 .583.08.848.238.282.16.486.38.609.663l7.474 16.351Zm-12.774-5.194h7.765l-3.896-8.772-3.869 8.772ZM126.238 36.35c-.406 0-.733-.124-.98-.37-.247-.248-.371-.575-.371-.981v-16.14c0-.406.124-.724.371-.954.247-.248.565-.371.954-.371h9.594c.371 0 .662.106.874.318.212.194.318.46.318.795 0 .336-.106.61-.318.822-.212.194-.503.291-.874.291h-8.216v15.238c0 .407-.124.734-.371.981s-.574.371-.981.371ZM153.716 34.627c.088.212.133.39.133.53 0 .336-.142.619-.425.849-.265.23-.565.344-.901.344-.229 0-.45-.062-.662-.185a1.37 1.37 0 0 1-.451-.583l-1.749-3.976h-9.699l-1.75 3.976a1.296 1.296 0 0 1-.477.583 1.294 1.294 0 0 1-.662.185c-.353 0-.671-.115-.954-.344a1.08 1.08 0 0 1-.398-.849c0-.14.044-.317.133-.53l7.473-16.351a1.42 1.42 0 0 1 .583-.663c.283-.159.575-.238.875-.238.3 0 .583.08.848.238.283.16.486.38.61.663l7.473 16.351Zm-12.774-5.194h7.765l-3.896-8.772-3.869 8.772ZM164.289 36.43c-1.82 0-3.393-.39-4.718-1.166-1.325-.778-2.35-1.882-3.074-3.313-.707-1.449-1.06-3.145-1.06-5.088 0-1.944.353-3.631 1.06-5.062.724-1.431 1.749-2.536 3.074-3.313 1.325-.777 2.898-1.166 4.718-1.166 2.349 0 4.328.707 5.936 2.12.389.318.583.689.583 1.113 0 .3-.106.557-.318.769a.933.933 0 0 1-.716.318c-.247 0-.521-.106-.821-.318-.778-.636-1.52-1.087-2.226-1.352-.689-.265-1.493-.398-2.412-.398-1.749 0-3.145.522-4.187 1.564-1.025 1.042-1.626 2.535-1.802 4.479h8.056c.354 0 .636.106.848.318.23.194.345.46.345.795 0 .318-.115.583-.345.795-.212.194-.494.292-.848.292h-8.083c.124 2.031.707 3.595 1.749 4.69 1.043 1.096 2.465 1.644 4.267 1.644.813 0 1.573-.115 2.279-.345.707-.247 1.467-.671 2.279-1.272.283-.177.557-.265.822-.265.283 0 .512.106.689.318a.974.974 0 0 1 .291.715c0 .477-.229.884-.689 1.22-.689.583-1.545 1.05-2.57 1.404a9.986 9.986 0 0 1-3.127.504ZM190.676 17.401c.389 0 .707.133.954.398.247.247.371.574.371.98v16.272c0 .407-.115.725-.344.955-.212.23-.513.344-.901.344-.371 0-.663-.115-.875-.344-.212-.23-.318-.548-.318-.955V22.728l-5.194 9.885c-.336.619-.769.928-1.299.928-.53 0-.963-.31-1.299-.928l-5.22-9.779v12.217c0 .407-.106.725-.318.955-.212.23-.513.344-.901.344-.371 0-.672-.115-.902-.344-.212-.248-.318-.566-.318-.955V18.78c0-.406.124-.733.371-.98.248-.265.566-.398.955-.398.547 0 .989.318 1.325.954l6.334 12.112 6.28-12.112c.336-.636.769-.954 1.299-.954Z" fill="#39C8EF"/><path d="M43.28 12.816a.404.404 0 0 1-.3-.11.418.418 0 0 1-.109-.308V6.199c0-.126.037-.226.11-.299a.404.404 0 0 1 .299-.11h3.856c.113 0 .206.034.28.1.072.06.109.14.109.24a.334.334 0 0 1-.11.259.426.426 0 0 1-.279.09h-3.458V8.67h1.894c.757 0 1.331.166 1.723.498.4.325.598.824.598 1.495 0 .425-.093.8-.279 1.126a1.883 1.883 0 0 1-.817.757c-.352.18-.767.269-1.245.269H43.28Zm2.192-.678c.531 0 .933-.126 1.206-.378.279-.26.418-.625.418-1.096 0-.452-.133-.784-.398-.997-.26-.213-.661-.319-1.206-.319h-1.814v2.79h1.794ZM53.86 7.266c0 1.102-.06 2.01-.18 2.72-.12.704-.31 1.275-.568 1.714a3.117 3.117 0 0 1-1.027 1.076.42.42 0 0 1-.229.07.354.354 0 0 1-.259-.11.409.409 0 0 1-.1-.269c0-.16.08-.282.24-.369.318-.159.574-.415.767-.767.193-.358.332-.853.418-1.485.093-.637.14-1.458.14-2.46V6.188c0-.126.033-.222.1-.289a.404.404 0 0 1 .299-.11h3.856c.126 0 .222.037.289.11.073.067.11.163.11.29v6.267a.404.404 0 0 1-.11.3.39.39 0 0 1-.29.109.404.404 0 0 1-.298-.11.404.404 0 0 1-.11-.299V6.478H53.86v.788ZM68.29 12.348c.026.053.04.11.04.169 0 .1-.04.183-.12.25a.386.386 0 0 1-.27.099c-.165 0-.282-.08-.348-.24l-.708-1.614h-3.756l-.718 1.615c-.066.16-.183.239-.349.239a.423.423 0 0 1-.279-.1.34.34 0 0 1-.08-.418l2.85-6.338a.43.43 0 0 1 .18-.21.506.506 0 0 1 .528.01c.08.047.14.114.18.2l2.85 6.338Zm-4.864-2.013h3.16L65 6.757l-1.575 3.578ZM72.67 12.866a.39.39 0 0 1-.29-.11.404.404 0 0 1-.109-.299V6.19a.39.39 0 0 1 .11-.289.39.39 0 0 1 .289-.11h3.657c.106 0 .189.034.249.1.066.06.1.14.1.24a.35.35 0 0 1-.1.259.337.337 0 0 1-.25.09h-3.248v5.978a.404.404 0 0 1-.11.3.404.404 0 0 1-.298.109ZM83.363 12.896c-.651 0-1.22-.146-1.704-.439a2.889 2.889 0 0 1-1.106-1.245c-.26-.538-.389-1.173-.389-1.904 0-.737.126-1.375.379-1.913.259-.545.627-.96 1.106-1.246.485-.292 1.056-.438 1.714-.438.657 0 1.225.146 1.704.438.485.286.853.701 1.106 1.246.259.538.388 1.173.388 1.903 0 .731-.129 1.369-.388 1.914-.26.538-.631.953-1.116 1.245-.478.293-1.043.439-1.694.439Zm0-.698c.744 0 1.322-.249 1.734-.747.418-.505.627-1.223.627-2.153 0-.93-.206-1.644-.617-2.142-.412-.498-.993-.747-1.744-.747-.744 0-1.326.252-1.744.757-.412.498-.618 1.209-.618 2.132 0 .924.206 1.638.618 2.143.418.505 1 .757 1.744.757ZM90.331 14.39a.39.39 0 0 1-.289-.11.428.428 0 0 1-.1-.298v-1.445c0-.126.034-.226.1-.299a.404.404 0 0 1 .299-.11h.369c.378-.59.63-1.295.757-2.112.133-.824.2-1.777.2-2.86v-.967c0-.126.032-.222.099-.289a.404.404 0 0 1 .299-.11h3.747c.126 0 .226.037.299.11.073.067.11.163.11.29v5.938h.587c.126 0 .223.037.29.11.072.073.109.173.109.299v1.445a.404.404 0 0 1-.11.299.378.378 0 0 1-.279.11.39.39 0 0 1-.289-.11.404.404 0 0 1-.11-.3v-1.165h-5.69v1.166a.404.404 0 0 1-.109.299.39.39 0 0 1-.289.11Zm5.072-7.922h-2.98v.628c0 1.15-.072 2.13-.219 2.94-.14.81-.372 1.508-.697 2.092h3.896v-5.66ZM101.564 12.866a.403.403 0 0 1-.299-.11.44.44 0 0 1-.11-.309V6.16c0-.126.037-.225.11-.298a.384.384 0 0 1 .299-.12c.126 0 .226.04.299.12a.404.404 0 0 1 .109.298v6.288a.44.44 0 0 1-.109.31.404.404 0 0 1-.299.109ZM111.428 5.96a.495.495 0 0 1 .438-.22c.133 0 .236.037.309.11.073.074.11.177.11.31v6.297a.404.404 0 0 1-.11.3.404.404 0 0 1-.299.109.39.39 0 0 1-.289-.11.404.404 0 0 1-.11-.299v-5.43l-4.095 5.57a.708.708 0 0 1-.219.209.538.538 0 0 1-.26.06.402.402 0 0 1-.298-.11.435.435 0 0 1-.11-.309V6.15a.4.4 0 0 1 .11-.298.39.39 0 0 1 .289-.11c.126 0 .225.036.298.11a.4.4 0 0 1 .11.298v5.421l4.126-5.61Zm-2.033-.817c-.399 0-.758-.086-1.077-.26a1.552 1.552 0 0 1-.687-.766.426.426 0 0 1-.03-.15c0-.086.033-.16.1-.22a.319.319 0 0 1 .219-.089c.126 0 .226.067.299.2.252.485.644.727 1.176.727.518 0 .907-.24 1.166-.717.073-.14.172-.21.299-.21.079 0 .152.033.219.1.066.06.099.133.099.22a2.238 2.238 0 0 1-.039.169 1.622 1.622 0 0 1-.698.747c-.306.166-.654.249-1.046.249ZM122.228 5.74c.127 0 .223.04.289.12.073.074.11.173.11.3v6.287a.44.44 0 0 1-.11.31c-.066.072-.162.109-.289.109a.404.404 0 0 1-.299-.11.44.44 0 0 1-.109-.309v-2.85h-4.205v2.85a.44.44 0 0 1-.11.31.404.404 0 0 1-.299.109.404.404 0 0 1-.299-.11.469.469 0 0 1-.1-.309V6.16a.43.43 0 0 1 .1-.298.386.386 0 0 1 .299-.12c.126 0 .226.04.299.12.073.073.11.172.11.298V8.9h4.205V6.16c0-.126.036-.225.109-.298a.386.386 0 0 1 .299-.12ZM132.082 5.96a.495.495 0 0 1 .438-.22c.133 0 .236.037.309.11.073.074.11.177.11.31v6.297a.404.404 0 0 1-.11.3.404.404 0 0 1-.299.109.391.391 0 0 1-.289-.11.404.404 0 0 1-.109-.299v-5.43l-4.096 5.57a.708.708 0 0 1-.219.209.534.534 0 0 1-.259.06.403.403 0 0 1-.299-.11.44.44 0 0 1-.11-.309V6.15c0-.126.037-.225.11-.298a.39.39 0 0 1 .289-.11c.126 0 .226.036.299.11a.404.404 0 0 1 .109.298v5.421l4.126-5.61ZM142.394 5.96c.1-.146.246-.22.439-.22a.42.42 0 0 1 .309.11c.073.074.109.177.109.31v6.297a.404.404 0 0 1-.109.3.406.406 0 0 1-.299.109.39.39 0 0 1-.289-.11.404.404 0 0 1-.11-.299v-5.43l-4.096 5.57a.708.708 0 0 1-.219.209.531.531 0 0 1-.259.06.404.404 0 0 1-.299-.11.44.44 0 0 1-.109-.309V6.15c0-.126.036-.225.109-.298a.392.392 0 0 1 .289-.11c.126 0 .226.036.299.11.073.073.11.172.11.298v5.421l4.125-5.61Zm-2.033-.817c-.398 0-.757-.086-1.076-.26a1.552 1.552 0 0 1-.687-.766.426.426 0 0 1-.03-.15c0-.086.033-.16.099-.22.067-.059.14-.089.22-.089.126 0 .225.067.298.2.253.485.645.727 1.176.727.519 0 .907-.24 1.166-.717.073-.14.173-.21.299-.21.08 0 .153.033.219.1.067.06.1.133.1.22a2.19 2.19 0 0 1-.04.169 1.62 1.62 0 0 1-.697.747 2.16 2.16 0 0 1-1.047.249ZM156.621 13.065a.391.391 0 0 1-.409-.409v-.617h-.169a4.073 4.073 0 0 1-1.634-.32 2.66 2.66 0 0 1-1.156-.946c-.286-.425-.429-.94-.429-1.544 0-.612.14-1.126.419-1.545a2.53 2.53 0 0 1 1.146-.937c.485-.206 1.036-.309 1.654-.309h.169V5.93c0-.126.037-.226.11-.299a.404.404 0 0 1 .299-.11.39.39 0 0 1 .289.11c.073.073.11.173.11.3v.507h.169c.618 0 1.169.103 1.654.31a2.53 2.53 0 0 1 1.146.936c.279.419.419.933.419 1.545 0 .604-.143 1.119-.429 1.544a2.644 2.644 0 0 1-1.166.947 4.004 4.004 0 0 1-1.624.319h-.169v.618c0 .12-.037.216-.11.288a.372.372 0 0 1-.289.12Zm-.409-5.969h-.169c-.731 0-1.312.183-1.744.548-.425.366-.638.894-.638 1.585 0 .458.103.85.309 1.176.206.318.489.56.847.727.359.166.768.249 1.226.249h.169V7.096Zm.977 4.285c.458 0 .867-.083 1.226-.25.358-.165.641-.408.847-.726.206-.326.309-.718.309-1.176 0-.691-.216-1.22-.648-1.585-.425-.365-1.003-.548-1.734-.548h-.169v4.285h.169ZM167.563 12.896c-.651 0-1.219-.146-1.704-.439a2.89 2.89 0 0 1-1.106-1.245c-.259-.538-.389-1.173-.389-1.904 0-.737.126-1.375.379-1.913.259-.545.628-.96 1.106-1.246.485-.292 1.056-.438 1.714-.438.658 0 1.226.146 1.704.438.485.286.854.701 1.106 1.246.259.538.389 1.173.389 1.903 0 .731-.13 1.369-.389 1.914a2.867 2.867 0 0 1-1.116 1.245c-.478.293-1.043.439-1.694.439Zm0-.698c.744 0 1.322-.249 1.734-.747.418-.505.628-1.223.628-2.153 0-.93-.206-1.644-.618-2.142-.412-.498-.993-.747-1.744-.747-.744 0-1.325.252-1.744.757-.412.498-.618 1.209-.618 2.132 0 .924.206 1.638.618 2.143.419.505 1 .757 1.744.757ZM180.444 5.74c.126 0 .223.04.289.12.073.074.11.173.11.3v6.287a.44.44 0 0 1-.11.31c-.066.072-.163.109-.289.109a.404.404 0 0 1-.299-.11.44.44 0 0 1-.109-.309v-2.85h-4.206v2.85a.44.44 0 0 1-.109.31.404.404 0 0 1-.299.109.404.404 0 0 1-.299-.11.469.469 0 0 1-.1-.309V6.16a.43.43 0 0 1 .1-.298.386.386 0 0 1 .299-.12c.126 0 .226.04.299.12a.404.404 0 0 1 .109.298V8.9h4.206V6.16c0-.126.036-.225.109-.298a.386.386 0 0 1 .299-.12ZM185.126 14.39a.39.39 0 0 1-.289-.11.425.425 0 0 1-.1-.298v-1.445c0-.126.033-.226.1-.299a.405.405 0 0 1 .299-.11h.369c.378-.59.631-1.295.757-2.112.133-.824.199-1.777.199-2.86v-.967c0-.126.033-.222.1-.289a.404.404 0 0 1 .299-.11h3.747c.126 0 .225.037.298.11.074.067.11.163.11.29v5.938h.588c.126 0 .223.037.289.11.073.073.11.173.11.299v1.445a.404.404 0 0 1-.11.299.378.378 0 0 1-.279.11.39.39 0 0 1-.289-.11.404.404 0 0 1-.11-.3v-1.165h-5.69v1.166a.404.404 0 0 1-.109.299.391.391 0 0 1-.289.11Zm5.072-7.922h-2.98v.628c0 1.15-.073 2.13-.219 2.94-.139.81-.372 1.508-.697 2.092h3.896v-5.66Z" fill="#000" fill-opacity=".5"/></svg>